<svg xmlns="http://www.w3.org/2000/svg" viewBox="0 0 178 48" role="img" aria-labelledby="title desc">
  <title id="title">Imago</title>
  <desc id="desc">Imago wordmark with emergence logo mark.</desc>
  <rect x="0" y="6" width="36" height="36" rx="10" fill="#1b1b19"/>
  <g fill="#fff" transform="translate(18 24) scale(.92) translate(-16 -16)">
    <rect x="5.4" y="8.55" width="4.7" height="2.7" rx="1.35"/>
    <rect x="5.4" y="14.2" width="6.8" height="2.7" rx="1.35"/>
    <rect x="5.4" y="19.85" width="9.1" height="2.7" rx="1.35"/>
    <path fill-rule="evenodd" d="M21.9 7.1h1.35a3.65 3.65 0 0 1 3.65 3.65v10.5a3.65 3.65 0 0 1-3.65 3.65H21.9a3.65 3.65 0 0 1-3.65-3.65v-10.5A3.65 3.65 0 0 1 21.9 7.1Zm.35 6.55h1.35c.72 0 1.3.58 1.3 1.3v3.1c0 .72-.58 1.3-1.3 1.3h-1.35c-.72 0-1.3-.58-1.3-1.3v-3.1c0-.72.58-1.3 1.3-1.3Z"/>
  </g>
  <text x="48" y="31" fill="#1b1b19" font-family="Inter, SF Pro Text, -apple-system, BlinkMacSystemFont, Segoe UI, sans-serif" font-size="23" font-weight="700" letter-spacing="-.5">Imago</text>
</svg>
