<?xml version="1.0" encoding="iso-8859-1"?>
<!-- Generator: Adobe Illustrator 30.8.2, SVG Export Plug-In . SVG Version: 9.03 Build 0)  -->
<svg version="1.1" xmlns="http://www.w3.org/2000/svg" xmlns:xlink="http://www.w3.org/1999/xlink" x="0px" y="0px"
	 viewBox="0 0 320 320" style="enable-background:new 0 0 320 320;" xml:space="preserve">
<g id="Background">
</g>
<g id="Grid">
</g>
<g id="Logo">
	<g id="Imago_mark_00000121256515404069825540000006192965153892644266_">
		<path id="field_1_00000129904229804815744470000008703728637835039678_" style="fill:#1B1B19;" d="M42,94L42,94
			c0-16.5,13.5-30,30-30h68c16.5,0,30,13.5,30,30v0c0,16.5-13.5,30-30,30H72C55.5,124,42,110.5,42,94z"/>
		<path id="field_2_00000024691209917176345570000007225625140200977078_" style="fill:#1B1B19;" d="M30,173L30,173
			c0-16.5,13.5-30,30-30h55c16.5,0,30,13.5,30,30v0c0,16.5-13.5,30-30,30H60C43.5,203,30,189.5,30,173z"/>
		
			<path id="body__x2B__aperture_00000099663363307709842310000000023440542414658492_" style="fill-rule:evenodd;clip-rule:evenodd;fill:#1B1B19;" d="
			M136,64h80c44,0,70,29,70,73v71c0,42-27,68-69,68h-81c-38,0-60-23-60-61v-90C76,87,98,64,136,64z M214,126c-14,0-23,9-23,23v44
			c0,14,9,23,23,23h7c14,0,23-9,23-23v-44c0-14-9-23-23-23H214z"/>
	</g>
</g>
<g id="Construction">
</g>
</svg>
